<svg xmlns="http://www.w3.org/2000/svg" width="324" height="50" fill="none"><path fill="#fff" d="M114.631 35.733c0-.814.126-1.94.694-4.569l2.397-10.701h9.967l2.145-9.95h-9.967L122.075 0h-12.617l-6.687 31.227c-.82 3.692-1.009 5.32-1.009 6.82 0 7.824 5.74 11.953 12.49 11.953 2.965 0 4.984-.311 7.507-1l2.145-10.013c-1.703.188-3.154.312-4.605.312-3.091 0-4.668-1.251-4.668-3.566ZM87.828 22.23c-.507 2.418-2.471 3.782-8.173 3.782-1.272 0-3.097-.131-5.121-.402 1.477-3.769 4.267-7.16 9.049-7.16 2.914 0 4.308 1.487 4.308 3.161 0 .186 0 .433-.063.619ZM84.343 9.77c-14.192 0-22.935 9.919-22.935 23.743C61.408 44.05 68.884 50 79.528 50c5.069 0 8.933-.433 12.861-1.55l2.091-9.731c-3.231.743-6.779 1.054-10.897 1.054-6.716 0-10.454-2.233-10.454-6.88 0-.124.002-.25.005-.38 2.991.426 6.014.627 10.575.627 9.567 0 15.713-3.347 15.713-12.274 0-6.075-3.928-11.096-15.079-11.096ZM234.133 28.767l-.631 3.043c-.944 4.656-3.654 7.388-8.382 7.388-3.782 0-5.421-2.36-5.421-5.65 0-.745.064-1.615.254-2.483l.629-3.043c.946-4.592 3.466-7.51 8.131-7.51 3.906 0 5.672 2.544 5.672 5.896 0 .745-.063 1.552-.252 2.36ZM229.596 9.77c-12.669 0-19.413 6.768-21.871 18.5-.44 2.174-.692 4.222-.692 6.022 0 10.804 7.5 15.708 17.331 15.708 12.289 0 19.223-6.147 21.807-18.438.44-2.11.631-4.036.631-5.836 0-10.12-6.619-15.956-17.206-15.956ZM43.569 31.13c-1.2 5.482-2.337 6.852-3.536 6.852-1.769 0-1.958-1.682-2.59-5.605l-1.767-10.4C34.16 12.946 29.36 9.77 22.416 9.77c-9.535 0-15.344 6.103-18.06 18.87L0 49.067h12.313L16.67 28.64c1.2-5.482 2.336-6.85 3.536-6.85 1.768 0 1.957 1.68 2.588 5.605l1.768 10.399C26.078 46.824 30.878 50 37.822 50c9.535 0 15.344-6.103 18.06-18.87l4.356-20.427H47.925L43.57 31.13ZM272.73 18.45c2.869 0 4.242 1.487 4.242 3.161 0 .186 0 .433-.063.619-.499 2.418-2.433 3.782-8.048 3.782-1.253 0-3.048-.131-5.041-.402 1.453-3.769 4.201-7.16 8.91-7.16Zm.124 14.69c9.42 0 15.471-3.347 15.471-12.274 0-6.075-3.869-11.096-14.847-11.096-13.975 0-22.582 9.919-22.582 23.743 0 10.537 7.36 16.487 17.841 16.487 4.991 0 8.795-.433 12.663-1.55l2.059-9.731c-3.182.743-6.676 1.054-10.729 1.054-6.614 0-10.295-2.233-10.295-6.88 0-.124.002-.25.006-.38 2.946.426 5.921.627 10.413.627ZM151.775 19.145c2.393 0 5.729.311 9.443.868l1.952-9.125c-3.526-.745-8.121-1.118-12.528-1.118-9.254 0-17.941 3.602-17.941 11.92 0 4.099 1.952 6.21 7.806 10.43 3.966 2.856 5.792 4.16 5.792 5.215 0 1.925-2.267 2.67-7.177 2.67-3.022 0-6.484-.373-10.198-1.055l-2.014 9.746c3.399.87 8.372 1.304 14.227 1.304 10.45 0 18.256-4.593 18.256-13.472 0-4.47-3.274-7.513-8.814-11.298l-2.455-1.677c-1.7-1.118-2.392-1.615-2.392-2.36 0-1.551 2.015-2.048 6.043-2.048ZM312.605 19.145c2.394 0 5.729.311 9.443.868L324 10.888c-3.525-.745-8.121-1.118-12.526-1.118-9.255 0-17.941 3.602-17.941 11.92 0 4.099 1.95 6.21 7.804 10.43 3.967 2.856 5.793 4.16 5.793 5.215 0 1.925-2.268 2.67-7.176 2.67-3.022 0-6.485-.373-10.198-1.055l-2.016 9.746c3.399.87 8.373 1.304 14.227 1.304 10.45 0 18.256-4.593 18.256-13.472 0-4.47-3.274-7.513-8.813-11.298l-2.455-1.677c-1.701-1.118-2.392-1.615-2.392-2.36 0-1.551 2.013-2.048 6.042-2.048ZM193.402 9.47c-4.484 0-8.217 1.387-11.672 4.226L184.673 0h-12.744l-10.514 48.85h12.744l5.862-27.29c2.23-1.06 4.397-1.62 6.5-1.62 2.931 0 4.333 1.058 4.333 3.177 0 .435 0 .87-.128 1.371l-5.225 24.363h12.808l5.29-24.488c.317-1.558.509-3.053.509-4.361 0-7.477-5.225-10.532-10.706-10.532Z"/></svg>