<svg xmlns="http://www.w3.org/2000/svg" width="25" height="22" fill="none"><path fill="#FFFDFD" d="M22.98 2.04A6.862 6.862 0 0 0 18.09.016a6.88 6.88 0 0 0-4.897 2.03l-.684.683-.694-.694A6.897 6.897 0 0 0 6.91 0C5.067 0 3.328.72 2.025 2.025A6.853 6.853 0 0 0 0 6.922c0 1.85.726 3.583 2.035 4.892l9.954 9.953a.72.72 0 0 0 .503.212c.18 0 .366-.069.503-.207l9.975-9.937A6.88 6.88 0 0 0 25 6.938a6.848 6.848 0 0 0-2.02-4.898Zm-1.017 8.782-9.47 9.434-9.45-9.45A5.456 5.456 0 0 1 1.43 6.923a5.43 5.43 0 0 1 1.606-3.88A5.449 5.449 0 0 1 6.91 1.436c1.468 0 2.852.573 3.89 1.611L12 4.245c.281.281.731.281 1.012 0L14.2 3.058a5.466 5.466 0 0 1 3.885-1.611 5.47 5.47 0 0 1 3.88 1.606 5.451 5.451 0 0 1 1.605 3.885 5.43 5.43 0 0 1-1.606 3.885Z"/></svg>