<svg xmlns="http://www.w3.org/2000/svg" width="22" height="20" fill="none"><path fill="#fff" stroke="#fff" d="M19.384 2.632a5.49 5.49 0 0 0-3.913-1.62c-1.48 0-2.87.577-3.918 1.625l-.547.547-.555-.556A5.517 5.517 0 0 0 6.529 1a5.498 5.498 0 0 0-3.91 1.62A5.482 5.482 0 0 0 1 6.537c0 1.48.58 2.867 1.628 3.914l7.963 7.963a.572.572 0 0 0 .806.004l7.98-7.95A5.504 5.504 0 0 0 21 6.55a5.478 5.478 0 0 0-1.616-3.918Zm-.814 7.026-7.576 7.547-7.56-7.56a4.365 4.365 0 0 1-1.29-3.108c0-1.174.454-2.276 1.286-3.103a4.359 4.359 0 0 1 3.099-1.285c1.174 0 2.281.458 3.112 1.289l.958.958a.57.57 0 0 0 .81 0l.95-.95a4.372 4.372 0 0 1 3.108-1.288c1.17 0 2.272.457 3.103 1.284a4.361 4.361 0 0 1 1.285 3.108 4.344 4.344 0 0 1-1.285 3.108Z"/></svg>